<mxfile host="app.diagrams.net" modified="2023-05-19T18:57:05.705Z" agent="Mozilla/5.0 (Windows NT 10.0; Win64; x64; rv:109.0) Gecko/20100101 Firefox/113.0" etag="7Gug-bFjLEEz19iOowru" version="21.2.9" type="device">
  <diagram id="C5RBs43oDa-KdzZeNtuy" name="Page-1">
    <mxGraphModel dx="1434" dy="782" grid="1" gridSize="10" guides="1" tooltips="1" connect="1" arrows="1" fold="1" page="1" pageScale="1" pageWidth="827" pageHeight="1169" math="0" shadow="0">
      <root>
        <mxCell id="WIyWlLk6GJQsqaUBKTNV-0" />
        <mxCell id="WIyWlLk6GJQsqaUBKTNV-1" parent="WIyWlLk6GJQsqaUBKTNV-0" />
        <mxCell id="I9m0G-TSdlajMX4sB2ht-1" value="" style="rounded=0;whiteSpace=wrap;html=1;" parent="WIyWlLk6GJQsqaUBKTNV-1" vertex="1">
          <mxGeometry x="100" y="60" width="160" height="490" as="geometry" />
        </mxCell>
        <mxCell id="I9m0G-TSdlajMX4sB2ht-3" value="AnovaHtmlSaver" style="rounded=0;whiteSpace=wrap;html=1;" parent="WIyWlLk6GJQsqaUBKTNV-1" vertex="1">
          <mxGeometry x="100" y="60" width="160" height="30" as="geometry" />
        </mxCell>
        <mxCell id="I9m0G-TSdlajMX4sB2ht-4" value="+Factors" style="text;html=1;align=left;verticalAlign=middle;resizable=0;points=[];autosize=1;strokeColor=none;fillColor=none;" parent="WIyWlLk6GJQsqaUBKTNV-1" vertex="1">
          <mxGeometry x="100" y="90" width="70" height="30" as="geometry" />
        </mxCell>
        <mxCell id="I9m0G-TSdlajMX4sB2ht-6" value="+Filter" style="text;html=1;align=left;verticalAlign=middle;resizable=0;points=[];autosize=1;strokeColor=none;fillColor=none;" parent="WIyWlLk6GJQsqaUBKTNV-1" vertex="1">
          <mxGeometry x="100" y="120" width="60" height="30" as="geometry" />
        </mxCell>
        <mxCell id="I9m0G-TSdlajMX4sB2ht-7" value="+Result" style="text;html=1;align=left;verticalAlign=middle;resizable=0;points=[];autosize=1;strokeColor=none;fillColor=none;" parent="WIyWlLk6GJQsqaUBKTNV-1" vertex="1">
          <mxGeometry x="100" y="150" width="70" height="30" as="geometry" />
        </mxCell>
        <mxCell id="I9m0G-TSdlajMX4sB2ht-8" value="-m_file" style="text;html=1;align=left;verticalAlign=middle;resizable=0;points=[];autosize=1;strokeColor=none;fillColor=none;" parent="WIyWlLk6GJQsqaUBKTNV-1" vertex="1">
          <mxGeometry x="100" y="180" width="60" height="30" as="geometry" />
        </mxCell>
        <mxCell id="I9m0G-TSdlajMX4sB2ht-9" value="-m_header" style="text;html=1;align=left;verticalAlign=middle;resizable=0;points=[];autosize=1;strokeColor=none;fillColor=none;" parent="WIyWlLk6GJQsqaUBKTNV-1" vertex="1">
          <mxGeometry x="100" y="210" width="80" height="30" as="geometry" />
        </mxCell>
        <mxCell id="I9m0G-TSdlajMX4sB2ht-10" value="-m_probability" style="text;html=1;align=left;verticalAlign=middle;resizable=0;points=[];autosize=1;strokeColor=none;fillColor=none;" parent="WIyWlLk6GJQsqaUBKTNV-1" vertex="1">
          <mxGeometry x="100" y="240" width="100" height="30" as="geometry" />
        </mxCell>
        <mxCell id="I9m0G-TSdlajMX4sB2ht-11" value="-m_results" style="text;html=1;align=left;verticalAlign=middle;resizable=0;points=[];autosize=1;strokeColor=none;fillColor=none;" parent="WIyWlLk6GJQsqaUBKTNV-1" vertex="1">
          <mxGeometry x="100" y="270" width="80" height="30" as="geometry" />
        </mxCell>
        <mxCell id="I9m0G-TSdlajMX4sB2ht-12" value="-m_table" style="text;html=1;align=left;verticalAlign=middle;resizable=0;points=[];autosize=1;strokeColor=none;fillColor=none;" parent="WIyWlLk6GJQsqaUBKTNV-1" vertex="1">
          <mxGeometry x="100" y="300" width="70" height="30" as="geometry" />
        </mxCell>
        <mxCell id="I9m0G-TSdlajMX4sB2ht-13" value="" style="endArrow=none;html=1;rounded=0;" parent="WIyWlLk6GJQsqaUBKTNV-1" edge="1">
          <mxGeometry width="50" height="50" relative="1" as="geometry">
            <mxPoint x="100" y="340" as="sourcePoint" />
            <mxPoint x="260" y="340" as="targetPoint" />
          </mxGeometry>
        </mxCell>
        <mxCell id="I9m0G-TSdlajMX4sB2ht-14" value="-AnovaHtmlSaver()" style="text;html=1;align=left;verticalAlign=middle;resizable=0;points=[];autosize=1;strokeColor=none;fillColor=none;" parent="WIyWlLk6GJQsqaUBKTNV-1" vertex="1">
          <mxGeometry x="100" y="342.5" width="130" height="30" as="geometry" />
        </mxCell>
        <mxCell id="I9m0G-TSdlajMX4sB2ht-15" value="-Run()" style="text;html=1;align=left;verticalAlign=middle;resizable=0;points=[];autosize=1;strokeColor=none;fillColor=none;" parent="WIyWlLk6GJQsqaUBKTNV-1" vertex="1">
          <mxGeometry x="100" y="372.5" width="60" height="30" as="geometry" />
        </mxCell>
        <mxCell id="I9m0G-TSdlajMX4sB2ht-16" value="-ToString()" style="text;html=1;align=left;verticalAlign=middle;resizable=0;points=[];autosize=1;strokeColor=none;fillColor=none;" parent="WIyWlLk6GJQsqaUBKTNV-1" vertex="1">
          <mxGeometry x="100" y="402.5" width="80" height="30" as="geometry" />
        </mxCell>
        <mxCell id="I9m0G-TSdlajMX4sB2ht-17" value="-WriteCommon&lt;div&gt;TestDescription()&lt;/div&gt;" style="text;html=1;align=left;verticalAlign=middle;resizable=0;points=[];autosize=1;strokeColor=none;fillColor=none;" parent="WIyWlLk6GJQsqaUBKTNV-1" vertex="1">
          <mxGeometry x="100" y="432.5" width="120" height="40" as="geometry" />
        </mxCell>
        <mxCell id="I9m0G-TSdlajMX4sB2ht-18" value="-WriteFactor&lt;div&gt;Results()&lt;/div&gt;" style="text;html=1;align=left;verticalAlign=middle;resizable=0;points=[];autosize=1;strokeColor=none;fillColor=none;" parent="WIyWlLk6GJQsqaUBKTNV-1" vertex="1">
          <mxGeometry x="100" y="472.5" width="90" height="40" as="geometry" />
        </mxCell>
        <mxCell id="I9m0G-TSdlajMX4sB2ht-19" value="-WriteStartTable()" style="text;html=1;align=left;verticalAlign=middle;resizable=0;points=[];autosize=1;strokeColor=none;fillColor=none;" parent="WIyWlLk6GJQsqaUBKTNV-1" vertex="1">
          <mxGeometry x="100" y="512.5" width="120" height="30" as="geometry" />
        </mxCell>
        <mxCell id="I9m0G-TSdlajMX4sB2ht-20" value="" style="rounded=0;whiteSpace=wrap;html=1;" parent="WIyWlLk6GJQsqaUBKTNV-1" vertex="1">
          <mxGeometry x="430" y="60" width="160" height="230" as="geometry" />
        </mxCell>
        <mxCell id="I9m0G-TSdlajMX4sB2ht-22" value="HtmlWriter" style="rounded=0;whiteSpace=wrap;html=1;" parent="WIyWlLk6GJQsqaUBKTNV-1" vertex="1">
          <mxGeometry x="430" y="60" width="160" height="30" as="geometry" />
        </mxCell>
        <mxCell id="I9m0G-TSdlajMX4sB2ht-23" value="-m_closed" style="text;html=1;strokeColor=none;fillColor=none;align=left;verticalAlign=middle;whiteSpace=wrap;rounded=0;" parent="WIyWlLk6GJQsqaUBKTNV-1" vertex="1">
          <mxGeometry x="430" y="90" width="60" height="30" as="geometry" />
        </mxCell>
        <mxCell id="I9m0G-TSdlajMX4sB2ht-24" value="-m_writer" style="text;html=1;strokeColor=none;fillColor=none;align=left;verticalAlign=middle;whiteSpace=wrap;rounded=0;" parent="WIyWlLk6GJQsqaUBKTNV-1" vertex="1">
          <mxGeometry x="430" y="120" width="60" height="30" as="geometry" />
        </mxCell>
        <mxCell id="I9m0G-TSdlajMX4sB2ht-25" value="" style="endArrow=none;html=1;rounded=0;" parent="WIyWlLk6GJQsqaUBKTNV-1" edge="1">
          <mxGeometry width="50" height="50" relative="1" as="geometry">
            <mxPoint x="430" y="160" as="sourcePoint" />
            <mxPoint x="590" y="160" as="targetPoint" />
          </mxGeometry>
        </mxCell>
        <mxCell id="I9m0G-TSdlajMX4sB2ht-26" value="-HtmlWriter()" style="text;html=1;strokeColor=none;fillColor=none;align=left;verticalAlign=middle;whiteSpace=wrap;rounded=0;" parent="WIyWlLk6GJQsqaUBKTNV-1" vertex="1">
          <mxGeometry x="430" y="160" width="60" height="30" as="geometry" />
        </mxCell>
        <mxCell id="I9m0G-TSdlajMX4sB2ht-27" value="-WriteHeader()" style="text;html=1;strokeColor=none;fillColor=none;align=left;verticalAlign=middle;whiteSpace=wrap;rounded=0;" parent="WIyWlLk6GJQsqaUBKTNV-1" vertex="1">
          <mxGeometry x="430" y="190" width="60" height="30" as="geometry" />
        </mxCell>
        <mxCell id="I9m0G-TSdlajMX4sB2ht-28" value="-WriteTable()" style="text;html=1;strokeColor=none;fillColor=none;align=left;verticalAlign=middle;whiteSpace=wrap;rounded=0;" parent="WIyWlLk6GJQsqaUBKTNV-1" vertex="1">
          <mxGeometry x="430" y="220" width="60" height="30" as="geometry" />
        </mxCell>
        <mxCell id="I9m0G-TSdlajMX4sB2ht-29" value="-WriteText()" style="text;html=1;strokeColor=none;fillColor=none;align=left;verticalAlign=middle;whiteSpace=wrap;rounded=0;" parent="WIyWlLk6GJQsqaUBKTNV-1" vertex="1">
          <mxGeometry x="430" y="250" width="60" height="30" as="geometry" />
        </mxCell>
        <mxCell id="I9m0G-TSdlajMX4sB2ht-30" value="" style="endArrow=block;html=1;rounded=0;dashed=1;dashPattern=12 12;endFill=1;" parent="WIyWlLk6GJQsqaUBKTNV-1" edge="1">
          <mxGeometry width="50" height="50" relative="1" as="geometry">
            <mxPoint x="430" y="134.5" as="sourcePoint" />
            <mxPoint x="260" y="134.5" as="targetPoint" />
          </mxGeometry>
        </mxCell>
        <mxCell id="I9m0G-TSdlajMX4sB2ht-31" value="" style="rounded=0;whiteSpace=wrap;html=1;" parent="WIyWlLk6GJQsqaUBKTNV-1" vertex="1">
          <mxGeometry x="330" y="390" width="160" height="417.5" as="geometry" />
        </mxCell>
        <mxCell id="I9m0G-TSdlajMX4sB2ht-32" value="VariantsComparator" style="rounded=0;whiteSpace=wrap;html=1;" parent="WIyWlLk6GJQsqaUBKTNV-1" vertex="1">
          <mxGeometry x="330" y="390" width="160" height="30" as="geometry" />
        </mxCell>
        <mxCell id="I9m0G-TSdlajMX4sB2ht-33" value="-m_factors" style="text;html=1;strokeColor=none;fillColor=none;align=left;verticalAlign=middle;whiteSpace=wrap;rounded=0;" parent="WIyWlLk6GJQsqaUBKTNV-1" vertex="1">
          <mxGeometry x="330" y="510" width="60" height="30" as="geometry" />
        </mxCell>
        <mxCell id="I9m0G-TSdlajMX4sB2ht-35" value="-m_filter" style="text;html=1;strokeColor=none;fillColor=none;align=left;verticalAlign=middle;whiteSpace=wrap;rounded=0;" parent="WIyWlLk6GJQsqaUBKTNV-1" vertex="1">
          <mxGeometry x="330" y="540" width="60" height="30" as="geometry" />
        </mxCell>
        <mxCell id="I9m0G-TSdlajMX4sB2ht-36" value="-m_result" style="text;html=1;strokeColor=none;fillColor=none;align=left;verticalAlign=middle;whiteSpace=wrap;rounded=0;" parent="WIyWlLk6GJQsqaUBKTNV-1" vertex="1">
          <mxGeometry x="330" y="570" width="60" height="30" as="geometry" />
        </mxCell>
        <mxCell id="I9m0G-TSdlajMX4sB2ht-37" value="-m_source" style="text;html=1;strokeColor=none;fillColor=none;align=left;verticalAlign=middle;whiteSpace=wrap;rounded=0;" parent="WIyWlLk6GJQsqaUBKTNV-1" vertex="1">
          <mxGeometry x="330" y="600" width="60" height="30" as="geometry" />
        </mxCell>
        <mxCell id="I9m0G-TSdlajMX4sB2ht-38" value="+Factors" style="text;html=1;strokeColor=none;fillColor=none;align=left;verticalAlign=middle;whiteSpace=wrap;rounded=0;" parent="WIyWlLk6GJQsqaUBKTNV-1" vertex="1">
          <mxGeometry x="330" y="420" width="60" height="30" as="geometry" />
        </mxCell>
        <mxCell id="I9m0G-TSdlajMX4sB2ht-40" value="+ResultField" style="text;html=1;strokeColor=none;fillColor=none;align=left;verticalAlign=middle;whiteSpace=wrap;rounded=0;" parent="WIyWlLk6GJQsqaUBKTNV-1" vertex="1">
          <mxGeometry x="330" y="480" width="60" height="30" as="geometry" />
        </mxCell>
        <mxCell id="I9m0G-TSdlajMX4sB2ht-41" value="" style="endArrow=none;html=1;rounded=0;" parent="WIyWlLk6GJQsqaUBKTNV-1" edge="1">
          <mxGeometry width="50" height="50" relative="1" as="geometry">
            <mxPoint x="330" y="637.5" as="sourcePoint" />
            <mxPoint x="490" y="637.5" as="targetPoint" />
          </mxGeometry>
        </mxCell>
        <mxCell id="I9m0G-TSdlajMX4sB2ht-42" value="&lt;div&gt;+CreateDesctiptive&lt;/div&gt;&lt;div&gt;Table()&lt;/div&gt;" style="text;html=1;strokeColor=none;fillColor=none;align=left;verticalAlign=middle;whiteSpace=wrap;rounded=0;" parent="WIyWlLk6GJQsqaUBKTNV-1" vertex="1">
          <mxGeometry x="330" y="647.5" width="60" height="30" as="geometry" />
        </mxCell>
        <mxCell id="I9m0G-TSdlajMX4sB2ht-43" value="+GetDiffirenceInfo()" style="text;html=1;strokeColor=none;fillColor=none;align=left;verticalAlign=middle;whiteSpace=wrap;rounded=0;" parent="WIyWlLk6GJQsqaUBKTNV-1" vertex="1">
          <mxGeometry x="330" y="677.5" width="60" height="30" as="geometry" />
        </mxCell>
        <mxCell id="I9m0G-TSdlajMX4sB2ht-44" value="-GetError()" style="text;html=1;strokeColor=none;fillColor=none;align=left;verticalAlign=middle;whiteSpace=wrap;rounded=0;" parent="WIyWlLk6GJQsqaUBKTNV-1" vertex="1">
          <mxGeometry x="330" y="707.5" width="60" height="30" as="geometry" />
        </mxCell>
        <mxCell id="I9m0G-TSdlajMX4sB2ht-45" value="-GetFactorLevel()" style="text;html=1;strokeColor=none;fillColor=none;align=left;verticalAlign=middle;whiteSpace=wrap;rounded=0;" parent="WIyWlLk6GJQsqaUBKTNV-1" vertex="1">
          <mxGeometry x="330" y="737.5" width="60" height="30" as="geometry" />
        </mxCell>
        <mxCell id="I9m0G-TSdlajMX4sB2ht-47" value="&lt;div&gt;+Variants&lt;/div&gt;&lt;div&gt;Comparator()&lt;/div&gt;" style="text;html=1;strokeColor=none;fillColor=none;align=left;verticalAlign=middle;whiteSpace=wrap;rounded=0;" parent="WIyWlLk6GJQsqaUBKTNV-1" vertex="1">
          <mxGeometry x="330" y="767.5" width="60" height="30" as="geometry" />
        </mxCell>
        <mxCell id="I9m0G-TSdlajMX4sB2ht-49" value="" style="rounded=0;whiteSpace=wrap;html=1;" parent="WIyWlLk6GJQsqaUBKTNV-1" vertex="1">
          <mxGeometry x="610" y="324.37" width="160" height="347.5" as="geometry" />
        </mxCell>
        <mxCell id="I9m0G-TSdlajMX4sB2ht-50" value="MultiVariantsComparator" style="rounded=0;whiteSpace=wrap;html=1;" parent="WIyWlLk6GJQsqaUBKTNV-1" vertex="1">
          <mxGeometry x="610" y="318.12" width="160" height="27.5" as="geometry" />
        </mxCell>
        <mxCell id="I9m0G-TSdlajMX4sB2ht-51" value="+Filter" style="text;html=1;strokeColor=none;fillColor=none;align=left;verticalAlign=middle;whiteSpace=wrap;rounded=0;" parent="WIyWlLk6GJQsqaUBKTNV-1" vertex="1">
          <mxGeometry x="330" y="450" width="60" height="30" as="geometry" />
        </mxCell>
        <mxCell id="I9m0G-TSdlajMX4sB2ht-52" value="&lt;div align=&quot;left&quot;&gt;+Results&lt;/div&gt;" style="text;html=1;align=left;verticalAlign=middle;resizable=0;points=[];autosize=1;strokeColor=none;fillColor=none;" parent="WIyWlLk6GJQsqaUBKTNV-1" vertex="1">
          <mxGeometry x="610" y="353.12" width="70" height="30" as="geometry" />
        </mxCell>
        <mxCell id="I9m0G-TSdlajMX4sB2ht-53" value="&lt;div align=&quot;left&quot;&gt;+Source&lt;/div&gt;" style="text;html=1;align=left;verticalAlign=middle;resizable=0;points=[];autosize=1;strokeColor=none;fillColor=none;" parent="WIyWlLk6GJQsqaUBKTNV-1" vertex="1">
          <mxGeometry x="610" y="383.12" width="70" height="30" as="geometry" />
        </mxCell>
        <mxCell id="I9m0G-TSdlajMX4sB2ht-54" value="-m_comparator" style="text;html=1;align=left;verticalAlign=middle;resizable=0;points=[];autosize=1;strokeColor=none;fillColor=none;" parent="WIyWlLk6GJQsqaUBKTNV-1" vertex="1">
          <mxGeometry x="610" y="413.12" width="110" height="30" as="geometry" />
        </mxCell>
        <mxCell id="I9m0G-TSdlajMX4sB2ht-55" value="-m_factor1_max" style="text;html=1;align=left;verticalAlign=middle;resizable=0;points=[];autosize=1;strokeColor=none;fillColor=none;" parent="WIyWlLk6GJQsqaUBKTNV-1" vertex="1">
          <mxGeometry x="610" y="445.62" width="110" height="30" as="geometry" />
        </mxCell>
        <mxCell id="I9m0G-TSdlajMX4sB2ht-56" value="-m_facotr2_max" style="text;html=1;align=left;verticalAlign=middle;resizable=0;points=[];autosize=1;strokeColor=none;fillColor=none;" parent="WIyWlLk6GJQsqaUBKTNV-1" vertex="1">
          <mxGeometry x="610" y="475.62" width="110" height="30" as="geometry" />
        </mxCell>
        <mxCell id="I9m0G-TSdlajMX4sB2ht-57" value="-m_probability" style="text;html=1;align=left;verticalAlign=middle;resizable=0;points=[];autosize=1;strokeColor=none;fillColor=none;" parent="WIyWlLk6GJQsqaUBKTNV-1" vertex="1">
          <mxGeometry x="610" y="505.62" width="100" height="30" as="geometry" />
        </mxCell>
        <mxCell id="I9m0G-TSdlajMX4sB2ht-58" value="" style="endArrow=none;html=1;rounded=0;" parent="WIyWlLk6GJQsqaUBKTNV-1" edge="1">
          <mxGeometry width="50" height="50" relative="1" as="geometry">
            <mxPoint x="610" y="535.62" as="sourcePoint" />
            <mxPoint x="770" y="535.62" as="targetPoint" />
          </mxGeometry>
        </mxCell>
        <mxCell id="I9m0G-TSdlajMX4sB2ht-59" value="-CreateExample()" style="text;html=1;align=left;verticalAlign=middle;resizable=0;points=[];autosize=1;strokeColor=none;fillColor=none;" parent="WIyWlLk6GJQsqaUBKTNV-1" vertex="1">
          <mxGeometry x="610" y="535.62" width="120" height="30" as="geometry" />
        </mxCell>
        <mxCell id="I9m0G-TSdlajMX4sB2ht-60" value="-GetService()" style="text;html=1;align=left;verticalAlign=middle;resizable=0;points=[];autosize=1;strokeColor=none;fillColor=none;" parent="WIyWlLk6GJQsqaUBKTNV-1" vertex="1">
          <mxGeometry x="610" y="565.62" width="90" height="30" as="geometry" />
        </mxCell>
        <mxCell id="I9m0G-TSdlajMX4sB2ht-61" value="&lt;div&gt;-MultiVariants&lt;/div&gt;&lt;div&gt;Comparator()&lt;/div&gt;" style="text;html=1;align=left;verticalAlign=middle;resizable=0;points=[];autosize=1;strokeColor=none;fillColor=none;" parent="WIyWlLk6GJQsqaUBKTNV-1" vertex="1">
          <mxGeometry x="610" y="595.62" width="100" height="40" as="geometry" />
        </mxCell>
        <mxCell id="I9m0G-TSdlajMX4sB2ht-62" value="-ToString()" style="text;html=1;align=left;verticalAlign=middle;resizable=0;points=[];autosize=1;strokeColor=none;fillColor=none;" parent="WIyWlLk6GJQsqaUBKTNV-1" vertex="1">
          <mxGeometry x="610" y="635.62" width="80" height="30" as="geometry" />
        </mxCell>
        <mxCell id="I9m0G-TSdlajMX4sB2ht-63" value="" style="endArrow=block;html=1;rounded=0;dashed=1;dashPattern=12 12;endFill=1;edgeStyle=orthogonalEdgeStyle;" parent="WIyWlLk6GJQsqaUBKTNV-1" edge="1">
          <mxGeometry width="50" height="50" relative="1" as="geometry">
            <mxPoint x="330" y="640.75" as="sourcePoint" />
            <mxPoint x="260" y="210" as="targetPoint" />
            <Array as="points">
              <mxPoint x="300" y="641" />
              <mxPoint x="300" y="210" />
              <mxPoint x="280" y="210" />
            </Array>
          </mxGeometry>
        </mxCell>
        <mxCell id="I9m0G-TSdlajMX4sB2ht-65" value="" style="endArrow=block;html=1;rounded=0;edgeStyle=orthogonalEdgeStyle;dashed=1;dashPattern=12 12;endFill=1;" parent="WIyWlLk6GJQsqaUBKTNV-1" edge="1">
          <mxGeometry width="50" height="50" relative="1" as="geometry">
            <mxPoint x="610" y="450" as="sourcePoint" />
            <mxPoint x="260" y="160" as="targetPoint" />
            <Array as="points">
              <mxPoint x="580" y="340" />
              <mxPoint x="370" y="340" />
              <mxPoint x="370" y="160" />
            </Array>
          </mxGeometry>
        </mxCell>
      </root>
    </mxGraphModel>
  </diagram>
</mxfile>
